<?xml version="1.0" standalone="no"?>
<!DOCTYPE svg PUBLIC "-//W3C//DTD SVG 20010904//EN"
 "http://www.w3.org/TR/2001/REC-SVG-20010904/DTD/svg10.dtd">
<svg version="1.0" xmlns="http://www.w3.org/2000/svg"
 width="512.000000pt" height="512.000000pt" viewBox="0 0 512.000000 512.000000"
 preserveAspectRatio="xMidYMid meet">

<g transform="translate(0.000000,512.000000) scale(0.100000,-0.100000)"
fill="currentColor" stroke="none">
<path d="M3105 4789 c-472 -48 -910 -327 -1161 -738 -36 -59 -43 -65 -89 -76
-33 -9 -59 -24 -80 -46 -43 -48 -375 -592 -387 -636 -7 -25 -6 -49 2 -80 9
-39 8 -49 -8 -77 -119 -200 -572 -931 -596 -961 -17 -22 -81 -93 -143 -157
-126 -132 -179 -204 -235 -324 -55 -117 -79 -218 -85 -356 -11 -236 51 -445
187 -629 126 -169 301 -290 515 -355 84 -26 103 -28 265 -28 162 0 181 2 265
28 108 33 230 92 305 149 30 22 102 86 160 142 58 55 130 119 160 142 30 22
244 157 475 298 1139 699 1464 900 1529 950 424 319 661 862 606 1390 -86 838
-842 1451 -1685 1364z m410 -176 c390 -63 772 -346 964 -713 61 -117 96 -207
121 -314 117 -496 -65 -1049 -451 -1373 -106 -89 -63 -62 -1094 -693 -478
-293 -901 -553 -939 -578 -37 -25 -129 -104 -203 -174 -80 -76 -163 -145 -205
-170 -410 -244 -933 -90 -1144 337 -57 116 -74 185 -81 321 -4 82 -1 131 11
193 37 181 102 293 284 484 67 71 148 168 180 217 l58 88 24 -45 c53 -101 177
-179 302 -190 l57 -6 -36 -56 c-76 -120 -152 -218 -254 -326 -128 -137 -151
-178 -157 -295 -5 -110 18 -177 90 -256 86 -94 201 -134 322 -113 85 14 136
47 278 178 153 141 202 175 563 397 160 97 394 241 520 318 127 78 421 258
654 401 445 274 517 327 617 456 167 217 232 520 168 786 -37 157 -163 362
-285 464 -176 148 -347 216 -569 226 -351 15 -658 -147 -840 -444 -17 -29 -36
-53 -41 -53 -13 0 -353 218 -363 234 -15 22 94 175 206 291 324 337 774 485
1243 408z m-45 -613 c238 -68 448 -269 520 -499 42 -134 44 -311 3 -451 -17
-59 -71 -175 -106 -224 -39 -57 -141 -158 -197 -196 -30 -20 -471 -292 -980
-604 -509 -313 -959 -593 -1000 -624 -41 -30 -124 -104 -185 -162 -147 -143
-193 -164 -292 -135 -90 27 -154 126 -138 214 11 60 34 92 149 211 61 63 139
153 172 200 34 47 184 285 334 530 150 245 282 457 292 473 12 17 28 27 44 27
32 0 73 21 100 52 23 25 331 523 364 588 22 43 26 94 10 135 -9 23 -5 36 27
88 131 219 300 343 533 393 89 19 253 11 350 -16z m-1307 -346 c136 -87 247
-163 247 -168 0 -20 -343 -566 -355 -566 -8 0 -127 73 -265 161 -183 118 -249
166 -245 177 3 8 81 138 173 289 116 191 172 272 182 270 8 -2 126 -75 263
-163z m-448 -715 c96 -61 177 -115 180 -119 6 -9 -301 -513 -348 -572 -79 -99
-232 -116 -323 -36 -80 71 -103 187 -54 279 71 131 346 568 357 564 7 -2 91
-54 188 -116z"/>
<path d="M1327 2479 c-27 -16 -49 -67 -42 -99 8 -38 58 -80 94 -80 34 0 79 33
92 68 12 32 -5 87 -34 107 -24 17 -83 19 -110 4z"/>
</g>
</svg>
