<?xml version="1.0" standalone="no"?>
<!DOCTYPE svg PUBLIC "-//W3C//DTD SVG 20010904//EN"
 "http://www.w3.org/TR/2001/REC-SVG-20010904/DTD/svg10.dtd">
<svg version="1.0" xmlns="http://www.w3.org/2000/svg"
 width="512.000000pt" height="512.000000pt" viewBox="0 0 512.000000 512.000000"
 preserveAspectRatio="xMidYMid meet">

<g transform="translate(0.000000,512.000000) scale(0.100000,-0.100000)"
fill="currentColor" stroke="none">
<path d="M211 5068 c-57 -13 -110 -46 -150 -95 -65 -79 -61 100 -61 -2504 l0
-2368 24 -27 c29 -35 86 -39 116 -9 18 19 693 1223 767 1370 30 59 57 162 174
667 76 328 148 620 160 650 39 92 72 130 326 374 137 130 266 258 287 283 66
78 95 155 133 349 55 290 63 319 100 393 21 42 57 92 88 123 29 28 243 191
475 360 232 170 435 320 451 333 42 35 38 77 -8 102 -28 14 -2815 14 -2882 -1z"/>
<path d="M3294 4921 c-57 -26 -87 -72 -92 -140 -5 -80 73 -743 92 -779 12 -24
199 -201 580 -552 l38 -36 -117 -490 c-65 -269 -121 -492 -124 -495 -3 -4
-152 -3 -331 2 -371 10 -399 7 -472 -59 -81 -73 -644 -704 -673 -755 -25 -44
-30 -62 -29 -117 1 -192 193 -312 365 -227 46 22 94 71 334 337 l279 310 131
-1 c71 -1 169 -4 216 -8 l87 -6 -134 -190 c-131 -187 -164 -249 -164 -309 0
-17 39 -247 86 -511 73 -411 90 -487 113 -530 114 -206 419 -160 471 70 12 53
15 34 -75 535 l-67 369 230 329 c127 180 240 344 251 364 13 21 68 230 141
528 65 271 121 494 123 496 7 8 207 -219 207 -235 0 -9 -23 -157 -51 -330 -33
-201 -49 -325 -44 -348 8 -44 66 -109 112 -124 74 -24 168 12 202 80 12 23 42
175 82 417 63 378 63 381 46 425 -12 32 -84 118 -258 309 -305 336 -361 392
-419 424 -27 14 -127 45 -234 71 l-187 45 -199 185 c-162 151 -200 192 -205
218 -3 18 -19 158 -35 312 -17 154 -35 296 -40 315 -11 40 -61 93 -103 109
-41 16 -87 13 -133 -8z"/>
<path d="M4317 4579 c-198 -47 -336 -255 -298 -450 33 -169 155 -289 323 -320
308 -57 554 274 416 559 -76 159 -270 251 -441 211z"/>
</g>
</svg>
