<?xml version="1.0" standalone="no"?>
<!DOCTYPE svg PUBLIC "-//W3C//DTD SVG 20010904//EN"
 "http://www.w3.org/TR/2001/REC-SVG-20010904/DTD/svg10.dtd">
<svg version="1.0" xmlns="http://www.w3.org/2000/svg"
 width="512.000000pt" height="512.000000pt" viewBox="0 0 512.000000 512.000000"
 preserveAspectRatio="xMidYMid meet">

<g transform="translate(0.000000,512.000000) scale(0.100000,-0.100000)"
fill="currentColor" stroke="none">
<path d="M1685 4624 c-204 -43 -381 -187 -470 -379 -45 -96 -59 -164 -59 -275
0 -111 14 -179 59 -275 69 -149 171 -253 320 -324 104 -51 169 -65 285 -65
119 0 180 14 299 71 165 79 290 230 347 418 25 83 25 267 0 350 -57 187 -182
339 -347 418 -151 73 -286 92 -434 61z m235 -346 c86 -26 178 -115 205 -199
53 -158 -15 -323 -165 -401 -34 -17 -66 -24 -127 -26 -72 -4 -89 -1 -140 23
-76 34 -129 86 -164 160 -24 50 -29 73 -29 135 0 62 5 85 29 135 73 152 230
221 391 173z"/>
<path d="M3165 4624 c-198 -42 -371 -176 -458 -354 -101 -207 -101 -393 0
-600 65 -133 162 -230 294 -293 119 -57 180 -71 299 -71 116 0 181 14 285 65
149 71 251 175 320 324 45 96 59 164 59 275 0 111 -14 179 -59 275 -68 149
-170 252 -320 325 -136 66 -276 84 -420 54z m235 -346 c179 -55 273 -272 191
-443 -35 -74 -88 -126 -164 -160 -51 -24 -68 -27 -140 -23 -97 4 -154 29 -215
92 -127 131 -127 321 0 452 85 89 206 119 328 82z"/>
<path d="M460 3604 c-220 -58 -398 -246 -445 -470 -44 -209 15 -404 170 -559
91 -92 165 -136 281 -165 327 -84 663 113 750 440 23 86 23 236 0 314 -63 214
-236 387 -442 440 -77 20 -239 20 -314 0z m280 -353 c96 -49 141 -117 148
-226 4 -62 1 -81 -20 -126 -77 -168 -273 -218 -420 -106 -161 123 -122 391 68
467 66 27 162 23 224 -9z"/>
<path d="M4335 3602 c-105 -31 -184 -80 -270 -167 -124 -124 -178 -253 -178
-425 0 -178 57 -314 183 -440 191 -192 480 -235 723 -108 92 48 213 173 260
269 164 334 2 734 -350 861 -83 30 -283 35 -368 10z m268 -342 c146 -55 214
-235 141 -378 -84 -163 -305 -199 -433 -71 -97 96 -108 257 -26 364 71 94 201
129 318 85z"/>
<path d="M1865 2995 c-263 -48 -478 -217 -600 -470 -59 -121 -85 -225 -92
-366 -22 -436 233 -883 727 -1277 186 -148 530 -366 620 -393 53 -16 93 -4
217 68 799 457 1238 1039 1210 1602 -7 145 -33 246 -97 376 -131 269 -377 442
-672 471 -182 18 -410 -62 -561 -197 l-58 -52 -42 41 c-105 101 -244 171 -392
197 -103 18 -165 18 -260 0z m313 -376 c74 -36 160 -117 221 -206 47 -71 97
-103 160 -103 68 0 106 26 177 123 132 177 273 248 449 225 178 -24 339 -178
401 -384 27 -88 24 -244 -6 -354 -98 -359 -402 -693 -918 -1008 l-103 -63
-102 63 c-229 141 -399 271 -547 418 -137 136 -228 258 -294 395 -73 149 -99
251 -100 385 0 172 49 298 164 412 143 143 330 179 498 97z"/>
</g>
</svg>
