<?xml version="1.0" standalone="no"?>
<!DOCTYPE svg PUBLIC "-//W3C//DTD SVG 20010904//EN"
 "http://www.w3.org/TR/2001/REC-SVG-20010904/DTD/svg10.dtd">
<svg version="1.0" xmlns="http://www.w3.org/2000/svg"
 width="512.000000pt" height="512.000000pt" viewBox="0 0 512.000000 512.000000"
 preserveAspectRatio="xMidYMid meet">

<g transform="translate(0.000000,512.000000) scale(0.100000,-0.100000)"
fill="currentColor" stroke="none">
<path d="M2476 5091 c-127 -67 -247 -180 -335 -315 -54 -83 -60 -109 -36 -156
21 -42 53 -60 103 -60 51 0 67 15 166 143 51 67 162 167 186 167 24 0 135
-100 186 -167 99 -128 115 -143 166 -143 50 0 82 18 103 60 25 48 18 75 -44
167 -104 155 -299 317 -398 330 -30 4 -51 -2 -97 -26z"/>
<path d="M1494 4930 c-34 -14 -64 -59 -64 -97 0 -46 47 -131 82 -149 58 -30
136 -7 159 48 16 40 6 98 -25 145 -38 58 -93 77 -152 53z"/>
<path d="M3522 4927 c-58 -34 -97 -137 -73 -195 23 -55 101 -78 159 -48 36 19
82 103 82 150 0 53 -42 97 -100 102 -27 3 -54 -1 -68 -9z"/>
<path d="M1704 4457 c-123 -126 -179 -295 -178 -532 0 -188 35 -344 117 -527
62 -138 205 -346 257 -373 60 -31 126 -11 156 46 27 53 18 80 -56 180 -197
263 -284 569 -236 822 15 78 55 176 81 197 12 10 31 4 97 -29 247 -121 439
-386 528 -728 26 -97 49 -123 114 -130 42 -5 48 -3 82 31 36 36 37 37 31 104
-10 135 -99 357 -212 529 -81 122 -254 294 -366 361 -97 58 -246 112 -310 112
-40 0 -48 -5 -105 -63z"/>
<path d="M3255 4513 c-157 -35 -316 -127 -454 -263 -89 -89 -111 -123 -111
-175 1 -119 149 -143 228 -36 72 97 322 260 356 232 27 -22 67 -119 82 -198
48 -253 -39 -559 -236 -822 -74 -100 -83 -127 -56 -180 30 -57 96 -77 156 -46
52 27 195 235 257 373 82 183 117 339 117 527 1 237 -55 406 -178 532 -56 57
-65 63 -101 62 -22 -1 -49 -3 -60 -6z"/>
<path d="M1105 4326 c-95 -19 -183 -55 -210 -88 -38 -45 -50 -101 -49 -238 1
-162 35 -279 122 -425 80 -134 218 -276 282 -290 40 -9 97 20 117 58 29 57 14
100 -69 185 -115 119 -171 212 -208 343 -23 85 -27 191 -7 208 8 6 48 17 89
25 91 17 113 30 134 74 29 62 0 125 -69 151 -34 13 -54 13 -132 -3z"/>
<path d="M3880 4329 c-67 -28 -94 -91 -66 -151 21 -44 43 -57 134 -74 41 -8
81 -19 89 -25 20 -17 16 -123 -7 -208 -37 -131 -93 -224 -208 -343 -83 -85
-98 -128 -69 -185 20 -38 77 -67 117 -58 64 14 202 156 282 290 103 172 147
372 118 542 -15 90 -41 131 -102 161 -92 44 -242 70 -288 51z"/>
<path d="M412 4053 c-85 -42 -80 -141 12 -212 57 -45 115 -44 163 4 33 33 35
39 30 81 -3 34 -13 55 -38 81 -62 64 -107 76 -167 46z"/>
<path d="M4614 4057 c-66 -39 -104 -88 -104 -135 0 -69 42 -111 109 -112 66 0
144 63 157 127 17 85 -88 163 -162 120z"/>
<path d="M548 3531 c-136 -89 -258 -235 -258 -310 0 -68 74 -173 190 -268 72
-60 227 -140 336 -174 71 -22 71 -22 110 -3 50 25 78 73 70 118 -9 46 -43 79
-102 101 -145 52 -309 150 -342 205 -13 21 -10 26 25 62 21 22 68 59 105 84
75 49 89 68 90 124 0 42 -24 82 -60 99 -47 22 -87 13 -164 -38z"/>
<path d="M4405 3569 c-50 -25 -73 -106 -45 -159 6 -11 41 -40 78 -64 37 -25
84 -62 105 -84 35 -36 38 -41 25 -62 -33 -55 -197 -153 -342 -205 -59 -22 -93
-55 -102 -101 -8 -45 20 -93 70 -118 39 -19 39 -19 110 3 109 34 264 114 336
174 116 95 190 200 190 268 0 75 -122 221 -258 310 -77 51 -121 60 -167 38z"/>
<path d="M2451 3184 c-87 -43 -191 -141 -239 -225 -41 -72 -72 -193 -72 -278
0 -83 31 -198 75 -276 61 -110 184 -212 301 -250 47 -15 54 -15 100 1 124 41
257 159 314 279 35 74 60 176 60 250 0 203 -128 407 -311 498 -96 47 -132 48
-228 1z m148 -218 c40 -21 110 -101 134 -154 32 -72 30 -189 -4 -262 -32 -69
-74 -118 -126 -147 l-40 -23 -46 30 c-57 36 -110 108 -133 179 -42 134 19 296
141 372 36 23 39 23 74 5z"/>
<path d="M1222 3083 c-65 -32 -74 -84 -42 -243 55 -272 188 -518 385 -716 228
-229 508 -365 838 -409 l47 -6 0 -379 0 -379 -547 -4 c-469 -3 -555 -6 -594
-19 -180 -62 -304 -207 -331 -387 -36 -246 135 -484 381 -531 31 -6 229 -10
467 -10 l414 0 107 73 c316 213 456 313 473 335 22 27 26 76 10 116 -11 30
-65 66 -98 66 -34 0 -56 -13 -321 -195 l-242 -166 -397 3 c-365 3 -400 5 -432
22 -90 47 -134 119 -135 216 0 119 74 215 185 239 67 14 2286 15 2348 1 93
-22 164 -96 184 -193 21 -98 -34 -211 -125 -260 -41 -22 -52 -22 -477 -27
-469 -5 -467 -5 -495 -60 -19 -37 -19 -73 1 -111 29 -57 44 -59 481 -59 219 0
425 5 458 10 141 23 276 124 341 255 127 257 4 554 -272 657 -58 22 -70 22
-606 26 l-548 3 0 379 0 379 48 6 c595 79 1066 493 1207 1063 50 202 43 272
-29 306 -42 20 -59 20 -94 2 -50 -26 -63 -50 -78 -146 -43 -265 -161 -490
-355 -676 -158 -151 -310 -234 -539 -295 -98 -26 -334 -36 -451 -19 -493 71
-895 458 -985 947 -22 124 -35 154 -73 180 -40 27 -64 28 -109 6z"/>
</g>
</svg>
